#!OML:ASF F:\VICON\USERDATA\INSTALL\rory3\rory3.ASF
:FULLY-SPECIFIED
:DEGREES
502
root 0.909855 18.4641 -29.7936 -141.123 -28.4088 -204.506
lowerback -14.47 -5.41242 -6.70077
upperback -16.8672 -10.952 -5.3643
thorax -10.8257 -6.79582 -2.43306
lowerneck -14.5173 -2.10143 -14.0727
upperneck -29.8722 -8.85346 -1.42239
head -6.93659 -4.86017 2.25321
rclavicle -2.85256e-014 -3.97569e-014
rhumerus -384.687 -11.2367 375.927
rradius 14.2039
rwrist 43.3175
rhand -12.276 375.065
rfingers 7.12502
rthumb 13.791 -14.4578
lclavicle -2.85256e-014 -3.97569e-014
lhumerus 2.37112 -48.7034 -3.81103
lradius 20.7103
lwrist -35.856
lhand 9.07187 20.7032
lfingers 7.12502
lthumb 34.2455 47.4321
rfemur 135.25 -198.202 -196.546
rtibia 31.595
rfoot -56.48 -16.22
rtoes 62.8723
lfemur 11.7143 0.197811 -3.90821
ltibia 33.7971
lfoot 44.0683 28.4748
ltoes 7.13775
503
root 0.925252 18.5228 -29.9735 -139.91 -27.8145 -205.609
lowerback -15.2536 -5.3232 -7.89192
upperback -17.2684 -11.0598 -5.95706
thorax -10.9366 -6.91566 -2.51374
lowerneck -14.7781 -2.13485 -14.9467
upperneck -31.2376 -9.27834 -0.890456
head -7.34971 -5.01777 2.62894
rclavicle -8.85586e-014 4.37326e-015
rhumerus -384.7 -11.3956 378.618
rradius 13.7242
rwrist 41.4193
rhand -11.4507 373.346
rfingers 7.12502
rthumb 14.5863 -16.1212
lclavicle -8.85586e-014 4.37326e-015
lhumerus 2.97878 -43.7995 -5.1281
lradius 19.9609
lwrist -37.7135
lhand 11.6956 22.2039
lfingers 7.12502
lthumb 36.7327 48.337
rfemur 135.407 -198.605 -197.818
rtibia 31.0176
rfoot -57.6705 -13.4597
rtoes 63.4379
lfemur 12.6833 -0.0541902 -2.97226
ltibia 34.594
lfoot 43.9585 30.4729
ltoes 11.8691
504
root 0.928831 18.5892 -30.1379 -139.62 -28.085 -205.719
lowerback -16.3793 -5.72895 -8.37703
upperback -16.7433 -11.1405 -5.66307
thorax -9.51686 -6.86537 -2.19906
lowerneck -16.1233 -1.94045 -15.9107
upperneck -33.2076 -9.90474 -0.84174
head -7.90009 -5.34905 2.86846
rclavicle -1.17283e-014 -7.79236e-014
rhumerus -387.795 -34.0118 389.801
rradius 13.0713
rwrist 61.6158
rhand -9.64796 374.294
rfingers 7.12502
rthumb 16.3226 -15.039
lclavicle -1.17283e-014 -7.79236e-014
lhumerus 2.86477 -36.5246 -5.40456
lradius 18.8439
lwrist -40.6707
lhand 14.2689 23.4579
lfingers 7.12502
lthumb 39.163 48.931
rfemur 135.885 -200.22 -198.125
rtibia 30.5778
rfoot -59.4821 -11.7915
rtoes 63.5698
lfemur 14.1262 -0.499286 -0.589127
ltibia 35.2073
lfoot 45.3067 29.3894
ltoes 11.3807
505
root 0.956148 18.6185 -30.3001 -137.878 -26.3784 -208.287
lowerback -16.9627 -5.8283 -11.6366
upperback -17.1021 -11.4118 -6.58499
thorax -9.56281 -6.92806 -1.55891
lowerneck -16.0168 -1.92017 -16.4058
upperneck -34.753 -10.6539 -0.852738
head -8.49393 -5.62976 3.0429
rclavicle 8.23962e-014 3.57812e-015
rhumerus -385.64 -25.3837 388.465
rradius 12.7465
rwrist 51.3399
rhand -8.20787 371.029
rfingers 7.12502
rthumb 17.7088 -18.1846
lclavicle 8.23962e-014 3.57812e-015
lhumerus 3.70168 -31.3549 -6.93856
lradius 18.5543
lwrist -43.6943
lhand 17.272 24.7477
lfingers 7.12502
lthumb 41.9858 49.3425
rfemur 135.715 -202.115 -202.344
rtibia 29.9082
rfoot -61.9461 -11.2317
rtoes 63.4684
lfemur 15.0327 -1.34864 -1.76899
ltibia 35.932
lfoot 46.8505 27.6851
ltoes 9.09027
506
root 1.00693 18.6528 -30.4996 -135.97 -24.5896 -210.598
lowerback -18.5884 -6.47063 -15.7164
upperback -16.8701 -11.7156 -6.961
thorax -8.15415 -6.90671 -0.218097
lowerneck -16.79 -1.77501 -16.8648
upperneck -36.4591 -11.541 -1.20389
head -9.09673 -6.03714 3.08285
rclavicle 2.127e-014 3.29983e-014
rhumerus -384.63 -18.0067 387.705
rradius 13.4638
rwrist 41.5505
rhand -6.19857 367.416
rfingers 7.12502
rthumb 19.6415 -21.6118
lclavicle 2.127e-014 3.29983e-014
lhumerus 4.46902 -26.4691 -8.28141
lradius 18.3485
lwrist -45.3145
lhand 19.7157 26.3282
lfingers 7.12502
lthumb 44.2702 50.1096
rfemur 135.278 -203.967 -206.488
rtibia 28.9467
rfoot -64.8227 -9.73774
rtoes 63.4809
lfemur 15.4396 -2.09652 -2.7698
ltibia 36.5984
lfoot 48.6884 27.035
ltoes 7.09992
507
root 0.988883 18.7415 -30.6607 -135.6 -25.7663 -210.572
lowerback -18.8561 -6.47429 -14.6948
upperback -17.0429 -11.9031 -7.1813
thorax -8.3921 -7.14184 -1.01574
lowerneck -16.7809 -1.66572 -17.1606
upperneck -37.8748 -12.3209 -1.42157
head -9.69552 -6.32808 3.15715
rclavicle 8.99501e-014 -1.27222e-014
rhumerus -384.367 -18.6723 390.202
rradius 13.6565
rwrist 41.3356
rhand -4.08693 365.113
rfingers 7.12502
rthumb 21.6705 -23.6938
lclavicle 8.99501e-014 -1.27222e-014
lhumerus 5.81765 -24.2746 -10.1614
lradius 18.1216
lwrist -44.9318
lhand 21.5094 28.1816
lfingers 7.12502
lthumb 45.9385 51.3017
rfemur 136.548 -204.989 -205.638
rtibia 27.918
rfoot -66.602 -8.96479
rtoes 63.421
lfemur 16.3162 -3.48159 0.0597386
ltibia 37.1184
lfoot 50.4319 24.0943
ltoes 1.07013
508
root 0.989024 18.8161 -30.7944 -135.968 -26.9021 -210.429
lowerback -18.0741 -6.43187 -13.8018
upperback -17.1072 -12.0927 -7.3032
thorax -8.98527 -7.27424 -1.48491
lowerneck -16.944 -1.63398 -17.6418
upperneck -39.0874 -13.0877 -1.53665
head -10.1964 -6.59851 3.27865
rclavicle -3.71727e-014 4.03533e-014
rhumerus -384.452 -22.3272 393.9
rradius 13.5616
rwrist 44.3984
rhand -1.90589 363.566
rfingers 7.12502
rthumb 23.7637 -24.985
lclavicle -3.71727e-014 4.03533e-014
lhumerus 7.18816 -21.5677 -11.6877
lradius 18.0391
lwrist -45.0895
lhand 23.226 29.6564
lfingers 7.12502
lthumb 47.5276 52.0867
rfemur 138.566 -205.994 -204.213
rtibia 26.3078
rfoot -68.1814 -8.54004
rtoes 63.437
lfemur 17.79 -5.13469 2.92474
ltibia 37.566
lfoot 50.6788 24.3833
ltoes 3.35299
509
root 1.02086 18.847 -30.9642 -135.226 -25.9551 -211.826
lowerback -19.0043 -7.00218 -16.5868
upperback -16.4931 -12.1588 -7.42313
thorax -7.49069 -7.135 -0.47601
lowerneck -17.8004 -1.5725 -18.1962
upperneck -40.4818 -14.0773 -1.79968
head -10.7306 -7.02363 3.35106
rclavicle -3.37437e-014 -1.0794e-013
rhumerus -383.819 -14.5767 393.602
rradius 13.8562
rwrist 34.4722
rhand -0.274353 360.429
rfingers 7.12502
rthumb 25.3276 -27.909
lclavicle -3.37437e-014 -1.0794e-013
lhumerus 8.34401 -18.5275 -12.9751
lradius 17.9128
lwrist -44.484
lhand 24.109 30.9826
lfingers 7.12502
lthumb 48.3419 53.0343
rfemur 139.57 -207.392 -206.085
rtibia 24.4639
rfoot -70.3643 -7.20453
rtoes 63.6107
lfemur 18.9804 -6.50064 2.90304
ltibia 37.8527
lfoot 49.9029 27.2514
ltoes 6.90887
510
root 1.01902 18.9266 -31.1036 -135.168 -27.4093 -211.569
lowerback -18.0965 -6.82904 -15.2075
upperback -16.9589 -12.4924 -7.60417
thorax -8.72033 -7.39553 -1.18406
lowerneck -17.5201 -1.55894 -18.4355
upperneck -41.367 -14.726 -1.90813
head -11.1755 -7.20059 3.43572
rclavicle -2.73329e-014 -4.94974e-014
rhumerus -383.922 -20.3055 397.985
rradius 13.7597
rwrist 40.4252
rhand 1.67882 359.62
rfingers 7.12502
rthumb 27.1974 -28.4396
lclavicle -2.73329e-014 -4.94974e-014
lhumerus 10.1644 -19.8666 -15.5031
lradius 17.9721
lwrist -41.0797
lhand 24.6402 32.4455
lfingers 7.12502
lthumb 48.8306 54.2612
rfemur 141.353 -207.97 -204.433
rtibia 22.8053
rfoot -71.8501 -6.35265
rtoes 63.755
lfemur 19.7361 -7.98028 6.18867
ltibia 37.9951
lfoot 50.4038 27.2634
ltoes 7.37863
511
root 1.03425 18.9667 -31.2423 -134.978 -27.9802 -211.736
lowerback -18.4001 -7.18055 -15.5912
upperback -16.4858 -12.5591 -7.47715
thorax -7.86128 -7.36222 -0.997
lowerneck -18.1868 -1.37696 -18.6945
upperneck -42.7714 -15.868 -2.4826
head -11.839 -7.67639 3.37213
rclavicle 8.49804e-014 1.10524e-013
rhumerus -383.503 -12.8694 397.687
rradius 14.4835
rwrist 31.1423
rhand 3.53476 356.509
rfingers 7.12502
rthumb 28.9714 -31.2601
lclavicle 8.49804e-014 1.10524e-013
lhumerus 11.2842 -19.031 -17.2785
lradius 18.0372
lwrist -38.1858
lhand 24.5567 33.6815
lfingers 7.12502
lthumb 48.7539 55.5348
rfemur 142.428 -209.553 -204.336
rtibia 21.3185
rfoot -74.1081 -4.948
rtoes 63.9164
lfemur 20.6277 -9.24036 8.4619
ltibia 38.0268
lfoot 50.0212 27.9737
ltoes 9.10507
512
root 1.07497 18.9908 -31.4023 -133.838 -26.9256 -213.531
lowerback -17.8321 -7.26907 -18.2278
upperback -16.9329 -13.0191 -8.07206
thorax -8.66864 -7.48445 -0.231932
lowerneck -17.6764 -1.26272 -18.556
upperneck -43.5392 -16.6609 -3.05967
head -12.3667 -7.90275 3.24408
rclavicle 1.21756e-014 1.21954e-013
rhumerus -383.156 -16.953 401.25
rradius 14.4295
rwrist 35.6788
rhand 5.70775 355.596
rfingers 7.12502
rthumb 31.0448 -31.7969
lclavicle 1.21756e-014 1.21954e-013
lhumerus 12.7856 -18.458 -18.9711
lradius 18.2986
lwrist -36.6044
lhand 24.0651 34.5716
lfingers 7.12502
lthumb 48.3015 56.6425
rfemur 143.122 -210.776 -206.688
rtibia 19.8178
rfoot -76.1007 -4.67
rtoes 63.9256
lfemur 21.1664 -10.6165 7.94636
ltibia 38.0988
lfoot 49.6965 29.2036
ltoes 10.6478
513
root 1.08864 19.0368 -31.5323 -133.033 -26.6879 -214.644
lowerback -18.325 -7.69388 -19.6846
upperback -16.4226 -13.1253 -8.27097
thorax -7.67658 -7.48617 0.071768
lowerneck -18.0636 -1.12799 -18.8744
upperneck -44.7874 -17.7414 -3.36407
head -13.0171 -8.31918 3.29697
rclavicle 4.31735e-014 2.14687e-014
rhumerus -384.174 -24.819 405.838
rradius 14.4079
rwrist 42.8137
rhand 8.31189 355.723
rfingers 7.12502
rthumb 33.5235 -31.1649
lclavicle 4.31735e-014 2.14687e-014
lhumerus 13.6059 -14.7429 -19.5304
lradius 18.3456
lwrist -37.0974
lhand 24.1743 35.1719
lfingers 7.12502
lthumb 48.402 57.195
rfemur 144.293 -210.46 -207.091
rtibia 18.5702
rfoot -76.5108 -5.33769
rtoes 63.968
lfemur 21.5878 -12.2019 8.32009
ltibia 38.2688
lfoot 48.9272 30.5983
ltoes 12.0465
